#N canvas 160 49 1600 1126 10;
#X obj 375 245 inlet~;
#X obj 372 892 outlet~;
#X obj 525 168 initbang;
#X obj 525 229 \$1;
#X obj 551 229 \$2;
#X obj 577 229 \$3;
#X obj 525 193 t b b b;
#X obj 645 279 iem_receive;
#X msg 645 255 set filt3r_\$1;
#X floatatom 645 306 5 0 0 0 - - -, f 5;
#X obj 373 787 bsq2_dp~;
#X obj 387 409 r global_freq;
#X obj 501 633 r global_q;
#X obj 400 459 -1;
#X obj 400 490 * 100;
#X obj 577 256 s \$0-ms;
#X obj 400 433 r \$0-id;
#X obj 525 281 s \$0-id;
#X obj 645 228 r \$0-id;
#X obj 514 659 r \$0-q;
#X obj 645 328 s \$0-on_off;
#X obj 299 378 *~;
#X obj 374 378 *~;
#X text 251 381 bypass;
#X text 398 380 filter;
#X obj 315 169 r \$0-on_off;
#X obj 315 194 sel 0 1;
#X obj 390 348 line~;
#X obj 315 349 line~;
#X msg 423 320 0 10;
#X msg 347 321 0 10;
#X msg 315 321 1 10;
#X msg 390 320 1 10;
#X obj 393 170 r global_on_off;
#X obj 514 689 t b f;
#X obj 514 744 f;
#X obj 520 720 r reinit_q;
#N canvas 0 29 1920 1146 init_q 0;
#X obj 962 488 r \$0-id;
#X obj 26 547 expr ($f1 >= 0) && ($f1 < 10);
#X obj 213 547 expr ($f1 >= 10) && ($f1 < 20);
#X obj 400 545 expr ($f1 >= 20) && ($f1 < 30);
#X obj 586 546 expr ($f1 >= 30) && ($f1 < 40);
#X obj 774 548 expr ($f1 >= 40) && ($f1 < 50);
#X obj 960 547 expr ($f1 >= 50) && ($f1 < 60);
#X obj 1147 547 expr ($f1 >= 60) && ($f1 < 70);
#X obj 1334 547 expr ($f1 >= 70) && ($f1 < 80);
#X obj 1518 547 expr ($f1 >= 80) && ($f1 < 90);
#X obj 26 570 sel 1;
#X msg 26 593 4;
#X obj 213 570 sel 1;
#X msg 213 593 6;
#X obj 400 572 sel 1;
#X msg 400 595 10;
#X obj 586 570 sel 1;
#X msg 586 593 18;
#X obj 774 571 sel 1;
#X msg 774 594 25;
#X obj 960 571 sel 1;
#X obj 954 902 s \$0-q;
#X obj 1147 573 sel 1;
#X obj 1334 573 sel 1;
#X obj 1518 576 sel 1;
#X obj 1703 573 sel 1;
#X obj 1703 547 expr ($f1 >= 90) && ($f1 <= 100);
#X obj 6 667 sel 1;
#X obj 206 667 sel 1;
#X obj 399 669 sel 1;
#X obj 585 667 sel 1;
#X obj 773 668 sel 1;
#X obj 959 668 sel 1;
#X obj 1146 670 sel 1;
#X obj 1333 670 sel 1;
#X obj 1517 673 sel 1;
#X obj 1702 670 sel 1;
#X obj 7 644 expr ($f1 >= 100) && ($f1 < 110);
#X obj 206 644 expr ($f1 >= 110) && ($f1 < 120);
#X obj 399 642 expr ($f1 >= 120) && ($f1 < 130);
#X obj 585 643 expr ($f1 >= 130) && ($f1 < 140);
#X obj 773 645 expr ($f1 >= 140) && ($f1 < 150);
#X obj 959 644 expr ($f1 >= 150) && ($f1 < 160);
#X obj 1146 643 expr ($f1 >= 160) && ($f1 < 170);
#X obj 1333 644 expr ($f1 >= 170) && ($f1 < 180);
#X obj 1517 644 expr ($f1 >= 180) && ($f1 < 190);
#X obj 1702 644 expr ($f1 >= 190) && ($f1 <= 200);
#X msg 960 595 28;
#X msg 1147 598 36;
#X msg 1334 597 38;
#X msg 1518 600 39;
#X msg 1703 598 41;
#X msg 6 690 43;
#X msg 400 691 35;
#X msg 206 690 39;
#X msg 585 689 30;
#X msg 773 691 22;
#X msg 1147 694 25;
#X msg 1333 694 22;
#X obj 1490 766 sel 1;
#X obj 1490 740 expr ($f1 >= 200) && ($f1 <= 210);
#X obj 1700 766 sel 1;
#X obj 1700 740 expr ($f1 >= 210) && ($f1 <= 220);
#X msg 1517 698 14;
#X msg 1702 694 12;
#X msg 1490 790 10;
#X msg 1700 790 8;
#X msg 959 692 23;
#X connect 0 0 1 0;
#X connect 0 0 2 0;
#X connect 0 0 3 0;
#X connect 0 0 4 0;
#X connect 0 0 5 0;
#X connect 0 0 6 0;
#X connect 0 0 7 0;
#X connect 0 0 8 0;
#X connect 0 0 9 0;
#X connect 0 0 26 0;
#X connect 0 0 37 0;
#X connect 0 0 38 0;
#X connect 0 0 39 0;
#X connect 0 0 40 0;
#X connect 0 0 41 0;
#X connect 0 0 42 0;
#X connect 0 0 43 0;
#X connect 0 0 44 0;
#X connect 0 0 45 0;
#X connect 0 0 46 0;
#X connect 0 0 60 0;
#X connect 0 0 62 0;
#X connect 1 0 10 0;
#X connect 2 0 12 0;
#X connect 3 0 14 0;
#X connect 4 0 16 0;
#X connect 5 0 18 0;
#X connect 6 0 20 0;
#X connect 7 0 22 0;
#X connect 8 0 23 0;
#X connect 9 0 24 0;
#X connect 10 0 11 0;
#X connect 11 0 21 0;
#X connect 12 0 13 0;
#X connect 13 0 21 0;
#X connect 14 0 15 0;
#X connect 15 0 21 0;
#X connect 16 0 17 0;
#X connect 17 0 21 0;
#X connect 18 0 19 0;
#X connect 19 0 21 0;
#X connect 20 0 47 0;
#X connect 22 0 48 0;
#X connect 23 0 49 0;
#X connect 24 0 50 0;
#X connect 25 0 51 0;
#X connect 26 0 25 0;
#X connect 27 0 52 0;
#X connect 28 0 54 0;
#X connect 29 0 53 0;
#X connect 30 0 55 0;
#X connect 31 0 56 0;
#X connect 32 0 67 0;
#X connect 33 0 57 0;
#X connect 34 0 58 0;
#X connect 35 0 63 0;
#X connect 36 0 64 0;
#X connect 37 0 27 0;
#X connect 38 0 28 0;
#X connect 39 0 29 0;
#X connect 40 0 30 0;
#X connect 41 0 31 0;
#X connect 42 0 32 0;
#X connect 43 0 33 0;
#X connect 44 0 34 0;
#X connect 45 0 35 0;
#X connect 46 0 36 0;
#X connect 47 0 21 0;
#X connect 48 0 21 0;
#X connect 49 0 21 0;
#X connect 50 0 21 0;
#X connect 51 0 21 0;
#X connect 52 0 21 0;
#X connect 53 0 21 0;
#X connect 54 0 21 0;
#X connect 55 0 21 0;
#X connect 56 0 21 0;
#X connect 57 0 21 0;
#X connect 58 0 21 0;
#X connect 59 0 65 0;
#X connect 60 0 59 0;
#X connect 61 0 66 0;
#X connect 62 0 61 0;
#X connect 63 0 21 0;
#X connect 64 0 21 0;
#X connect 65 0 21 0;
#X connect 66 0 21 0;
#X connect 67 0 21 0;
#X restore 643 163 pd init_q;
#X obj 400 515 t b f;
#X obj 400 570 f;
#X obj 406 546 r reinit_freq;
#X obj 513 588 line;
#X obj 528 460 iem_receive;
#X floatatom 528 487 5 0 0 0 - - -, f 5;
#X obj 528 409 r \$0-id;
#X msg 528 436 set filfreq_\$1;
#X obj 513 508 f;
#X obj 558 508 r time;
#X obj 513 551 pack f f;
#X obj 513 384 r blast_off;
#X obj 666 381 r blast_off_central;
#X obj 666 415 t b b;
#X obj 764 484 r time;
#X obj 666 515 pack f f;
#X msg 693 441 11000;
#X obj 666 484 random 22000;
#X connect 0 0 21 0;
#X connect 0 0 22 0;
#X connect 2 0 6 0;
#X connect 2 0 31 0;
#X connect 3 0 17 0;
#X connect 5 0 15 0;
#X connect 6 0 3 0;
#X connect 6 1 4 0;
#X connect 6 2 5 0;
#X connect 7 0 9 0;
#X connect 8 0 7 0;
#X connect 9 0 20 0;
#X connect 10 0 1 0;
#X connect 11 0 10 1;
#X connect 12 0 10 2;
#X connect 13 0 14 0;
#X connect 14 0 38 0;
#X connect 16 0 13 0;
#X connect 18 0 8 0;
#X connect 19 0 34 0;
#X connect 21 0 1 0;
#X connect 22 0 10 0;
#X connect 25 0 26 0;
#X connect 26 0 31 0;
#X connect 26 0 29 0;
#X connect 26 1 32 0;
#X connect 26 1 30 0;
#X connect 27 0 22 1;
#X connect 28 0 21 1;
#X connect 29 0 27 0;
#X connect 30 0 28 0;
#X connect 31 0 28 0;
#X connect 32 0 27 0;
#X connect 33 0 26 0;
#X connect 34 0 35 0;
#X connect 34 1 35 1;
#X connect 35 0 10 2;
#X connect 36 0 35 0;
#X connect 38 0 39 0;
#X connect 38 1 39 1;
#X connect 39 0 10 1;
#X connect 40 0 39 0;
#X connect 41 0 10 1;
#X connect 42 0 43 0;
#X connect 43 0 46 1;
#X connect 44 0 45 0;
#X connect 45 0 42 0;
#X connect 46 0 48 0;
#X connect 47 0 48 1;
#X connect 48 0 41 0;
#X connect 49 0 46 0;
#X connect 50 0 51 0;
#X connect 51 0 55 0;
#X connect 51 1 54 0;
#X connect 52 0 53 1;
#X connect 53 0 41 0;
#X connect 54 0 41 0;
#X connect 55 0 53 0;
