#N canvas 463 371 1332 1266 10;
#X obj 211 132 tgl 15 0 empty empty empty 17 7 0 10 -262144 -1 -1 1
1;
#X obj 710 283 expr int(($f1*.5+.5)*255);
#X obj 710 306 expr ($f1 >> 0.5 | $f1 >> 4)& 25 & $f1>>2;
#X obj 710 329 expr $f1/255*2-1;
#X obj 710 352 abs;
#X floatatom -148 155 5 0 255 0 - - -;
#X obj -117 199 % 2;
#X floatatom -64 210 5 0 0 0 - - -;
#X floatatom -148 239 5 0 0 0 - - -;
#X obj -148 219 i;
#X obj -148 304 i;
#X obj -115 281 % 2;
#X floatatom -60 307 5 0 0 0 - - -;
#X floatatom -148 323 5 0 0 0 - - -;
#X obj -121 369 % 2;
#X floatatom -65 391 5 0 0 0 - - -;
#X obj -148 389 i;
#X floatatom -149 409 5 0 0 0 - - -;
#X obj -122 450 % 2;
#X floatatom -65 473 5 0 0 0 - - -;
#X obj -149 472 i;
#X floatatom -150 494 5 0 0 0 - - -;
#X obj -123 533 % 2;
#X floatatom -66 554 5 0 0 0 - - -;
#X obj -150 553 i;
#X floatatom -150 573 5 0 0 0 - - -;
#X obj -123 611 % 2;
#X floatatom -66 631 5 0 0 0 - - -;
#X obj -150 630 i;
#X floatatom -151 650 5 0 0 0 - - -;
#X obj -124 688 % 2;
#X floatatom -67 708 5 0 0 0 - - -;
#X obj -151 707 i;
#X floatatom -150 729 5 0 0 0 - - -;
#X obj -118 754 % 2;
#X floatatom -71 776 5 0 0 0 - - -;
#X text -20 196 bit;
#X text -16 219 1;
#X text -14 307 2;
#X text -17 393 3;
#X text -17 473 4;
#X text -18 556 5;
#X text -19 630 6;
#X text -22 707 7;
#X text -24 783 8;
#X obj -148 179 t f f;
#X obj -148 346 t f f;
#X obj -149 429 t f f;
#X obj -150 513 t f f;
#X obj -150 591 t f f;
#X obj -150 668 t f f;
#X obj -148 259 t f f;
#X obj 710 375 * 1e+06;
#X obj -121 867 % 2;
#X floatatom -68 888 5 0 0 0 - - -;
#X floatatom -152 907 5 0 0 0 - - -;
#X obj -152 887 i;
#X obj -152 972 i;
#X obj -119 949 % 2;
#X floatatom -64 975 5 0 0 0 - - -;
#X floatatom -152 991 5 0 0 0 - - -;
#X obj -124 1038 % 2;
#X floatatom -68 1060 5 0 0 0 - - -;
#X obj -151 1058 i;
#X floatatom -152 1078 5 0 0 0 - - -;
#X obj -125 1119 % 2;
#X floatatom -68 1142 5 0 0 0 - - -;
#X obj -152 1141 i;
#X floatatom -153 1163 5 0 0 0 - - -;
#X obj -126 1202 % 2;
#X floatatom -69 1223 5 0 0 0 - - -;
#X obj -153 1222 i;
#X floatatom -153 1242 5 0 0 0 - - -;
#X obj -126 1280 % 2;
#X floatatom -69 1300 5 0 0 0 - - -;
#X obj -153 1299 i;
#X floatatom -154 1319 5 0 0 0 - - -;
#X obj -127 1357 % 2;
#X floatatom -70 1377 5 0 0 0 - - -;
#X obj -154 1376 i;
#X floatatom -157 1399 5 0 0 0 - - -;
#X obj -151 848 t f f;
#X obj -152 1014 t f f;
#X obj -152 1098 t f f;
#X obj -153 1182 t f f;
#X obj -153 1260 t f f;
#X obj -153 1337 t f f;
#X obj -152 927 t f f;
#X obj -150 797 i;
#X floatatom -149 819 5 0 0 0 - - -;
#X text -16 888 9;
#X text -14 975 10;
#X text -18 1060 11;
#X text -21 1141 12;
#X text -25 1227 13;
#X text -30 1299 14;
#X text -20 1377 15;
#X obj -133 1448 % 2;
#X floatatom -80 1469 5 0 0 0 - - -;
#X floatatom -164 1488 5 0 0 0 - - -;
#X obj -164 1468 i;
#X obj -164 1553 i;
#X obj -131 1530 % 2;
#X floatatom -76 1556 5 0 0 0 - - -;
#X floatatom -164 1572 5 0 0 0 - - -;
#X obj -136 1619 % 2;
#X floatatom -80 1641 5 0 0 0 - - -;
#X obj -163 1639 i;
#X floatatom -164 1659 5 0 0 0 - - -;
#X obj -137 1700 % 2;
#X floatatom -80 1723 5 0 0 0 - - -;
#X obj -164 1722 i;
#X floatatom -165 1744 5 0 0 0 - - -;
#X obj -138 1783 % 2;
#X floatatom -81 1804 5 0 0 0 - - -;
#X obj -165 1803 i;
#X floatatom -165 1823 5 0 0 0 - - -;
#X obj -120 1858 % 2;
#X floatatom -81 1881 5 0 0 0 - - -;
#X obj -165 1880 i;
#X floatatom -166 1900 5 0 0 0 - - -;
#X obj -166 1938 / 2;
#X obj -139 1938 % 2;
#X floatatom -82 1958 5 0 0 0 - - -;
#X obj -164 1595 t f f;
#X obj -164 1679 t f f;
#X obj -165 1763 t f f;
#X obj -165 1841 t f f;
#X obj -165 1918 t f f;
#X obj -164 1508 t f f;
#X obj -157 1425 t f f;
#X text -31 1470 16;
#X text -29 1557 17;
#X text -32 1643 18;
#X text -32 1723 19;
#X text -33 1806 20;
#X text -34 1880 21;
#X text -37 1957 22;
#X obj -154 1357 / 1.5;
#X obj -164 1448 / 1.5;
#X obj -164 1532 / 1.5;
#X obj -163 1619 / 1.5;
#X obj -164 1700 / 1.5;
#X obj -165 1783 / 1.5;
#X obj -165 1861 / 1.5;
#X obj -148 199 / 1.5;
#X obj -148 283 / 1.5;
#X obj -148 369 / 1.5;
#X obj -149 450 / 1.5;
#X obj -150 533 / 1.5;
#X obj -150 612 / 1.5;
#X obj -152 689 / 1.5;
#X obj -150 778 / 1.5;
#X obj -152 867 / 1.5;
#X obj -152 951 / 1.5;
#X obj -151 1036 / 1.5;
#X obj -153 1118 / 1.5;
#X obj -153 1202 / 1.5;
#X obj -153 1281 / 1.5;
#X obj 711 236 f;
#X obj 736 236 + 1;
#X obj 710 399 s feed_bit;
#X obj -110 154 r feed_bit;
#X obj -63 266 s bit01;
#X obj -60 358 s bit02;
#X obj -66 443 s bit03;
#X obj -67 518 s bit04;
#X obj -66 600 s bit05;
#X obj -73 679 s bit06;
#X obj -68 756 s bit07;
#X obj -73 840 s bit08;
#X obj -69 949 s bit09;
#X obj -63 1024 s bit10;
#X obj -69 1110 s bit11;
#X obj -68 1199 s bit12;
#X obj -69 1278 s bit13;
#X obj -69 1349 s bit14;
#X obj -70 1434 s bit15;
#X obj -80 1528 s bit16;
#X obj -76 1598 s bit17;
#X obj -81 1692 s bit18;
#X obj -81 1776 s bit19;
#X obj -81 1851 s bit20;
#X obj -84 1927 s bit21;
#X obj -91 2038 s bit22;
#X obj 710 260 mod 1000;
#X floatatom 769 259 5 0 0 0 - - -;
#X obj 711 213 metro 100;
#X obj 336 318 expr int(($f1*.5+.5)*255);
#X obj 336 344 expr ($f1 >> $f2 | $f1 >> $f3)& 25 & $f1>>2;
#X obj 336 372 expr $f1/255*2-1;
#X obj 213 105 tgl 15 0 empty empty empty 17 7 0 10 -262144 -1 -1 0
1;
#X obj 339 266 f;
#X obj 364 266 + 1;
#X obj 338 189 metro 100;
#X obj 461 261 f;
#X obj 486 261 + 1;
#X obj 339 212 t b b b;
#X obj 599 262 f;
#X obj 624 262 + 1;
#X obj 336 440 s feed_bit;
#X obj 336 393 abs;
#X obj 336 416 * 1e+06;
#X obj 338 289 mod 10;
#X obj 462 287 mod 10;
#X obj 600 288 mod 10;
#X msg 451 212 20;
#X msg 491 215 10;
#X obj 237 105 bng 15 250 50 0 empty empty empty 17 7 0 10 -262144
-1 -1;
#X obj 259 105 bng 15 250 50 0 empty empty empty 17 7 0 10 -262144
-1 -1;
#X obj 239 132 bng 15 250 50 0 empty empty empty 17 7 0 10 -262144
-1 -1;
#X msg 777 235 100;
#X msg 813 236 1000;
#X obj 261 132 bng 15 250 50 0 empty empty empty 17 7 0 10 -262144
-1 -1;
#X obj -64 242 spigot;
#X obj 3 213 r first_band;
#X obj -60 331 spigot;
#X obj 7 302 r first_band;
#X obj -49 416 spigot;
#X obj 18 387 r first_band;
#X obj -59 497 spigot;
#X obj 4 467 r first_band;
#X obj -67 577 spigot;
#X obj -4 547 r first_band;
#X obj -74 655 spigot;
#X obj -11 625 r first_band;
#X obj -65 733 spigot;
#X obj -8 707 r first_band;
#X obj -67 806 spigot;
#X obj -10 780 r first_band;
#X obj -68 915 spigot;
#X obj -11 889 r first_band;
#X obj -61 996 spigot;
#X obj -4 970 r first_band;
#X obj -64 1085 spigot;
#X obj 1 1062 r first_band;
#X obj -70 1174 spigot;
#X obj -5 1151 r second_band;
#X obj -67 1250 spigot;
#X obj -2 1227 r second_band;
#X obj -66 1324 spigot;
#X obj -1 1301 r second_band;
#X obj -60 1408 spigot;
#X obj -14 1384 r second_band;
#X obj -75 1508 spigot;
#X obj -29 1484 r second_band;
#X obj -70 1577 spigot;
#X obj -8 1552 r second_band;
#X obj -72 1668 spigot;
#X obj -10 1643 r second_band;
#X obj -80 1752 spigot;
#X obj -18 1727 r second_band;
#X obj -32 1823 spigot;
#X obj 30 1798 r second_band;
#X obj -9 1899 spigot;
#X obj 53 1874 r second_band;
#X obj -78 2000 spigot;
#X obj -16 1975 r second_band;
#X obj 222 265 s first_band;
#X obj 190 381 s second_band;
#X obj 214 172 tgl 15 0 empty empty empty 17 7 0 10 -262144 -1 -1 1
1;
#X obj 192 300 tgl 15 0 empty empty empty 17 7 0 10 -262144 -1 -1 0
1;
#X obj 194 329 t f b;
#X obj 215 356 s reset_band;
#X obj 234 213 t f b;
#X obj 255 240 s reset_band;
#X obj 103 105 bng 15 250 50 0 empty empty empty 17 7 0 10 -262144
-1 -1;
#X obj 153 221 tgl 15 0 empty empty empty 17 7 0 10 -262144 -1 -1 0
1;
#X obj 156 245 sel 0 1;
#X msg 127 297 0;
#X msg 157 299 1;
#X obj 138 271 t b b;
#X msg 243 326 0;
#X msg 273 328 1;
#X obj 254 300 t b b;
#X obj 104 126 bng 15 250 50 0 empty empty empty 17 7 0 10 -262144
-1 -1;
#X obj 146 529 s first_band;
#X msg 150 492 1;
#X obj 157 427 t b b b;
#X msg 167 557 1;
#X obj 162 594 s second_band;
#X text 125 105 switch band;
#X text 127 126 both bands;
#X text 282 105 seq 1;
#X text 283 130 seq 2;
#X connect 0 0 187 0;
#X connect 1 0 2 0;
#X connect 2 0 3 0;
#X connect 3 0 4 0;
#X connect 4 0 52 0;
#X connect 5 0 45 0;
#X connect 6 0 7 0;
#X connect 7 0 214 0;
#X connect 8 0 51 0;
#X connect 9 0 8 0;
#X connect 10 0 13 0;
#X connect 11 0 12 0;
#X connect 12 0 216 0;
#X connect 13 0 46 0;
#X connect 14 0 15 0;
#X connect 15 0 218 0;
#X connect 16 0 17 0;
#X connect 17 0 47 0;
#X connect 18 0 19 0;
#X connect 19 0 220 0;
#X connect 20 0 21 0;
#X connect 21 0 48 0;
#X connect 22 0 23 0;
#X connect 23 0 222 0;
#X connect 24 0 25 0;
#X connect 25 0 49 0;
#X connect 26 0 27 0;
#X connect 27 0 224 0;
#X connect 28 0 29 0;
#X connect 29 0 50 0;
#X connect 30 0 31 0;
#X connect 31 0 226 0;
#X connect 32 0 33 0;
#X connect 33 0 34 0;
#X connect 33 0 152 0;
#X connect 34 0 35 0;
#X connect 35 0 228 0;
#X connect 45 0 145 0;
#X connect 45 1 6 0;
#X connect 46 0 147 0;
#X connect 46 1 14 0;
#X connect 47 0 148 0;
#X connect 47 1 18 0;
#X connect 48 0 149 0;
#X connect 48 1 22 0;
#X connect 49 0 150 0;
#X connect 49 1 26 0;
#X connect 50 0 151 0;
#X connect 50 1 30 0;
#X connect 51 0 146 0;
#X connect 51 1 11 0;
#X connect 52 0 161 0;
#X connect 53 0 54 0;
#X connect 54 0 230 0;
#X connect 55 0 87 0;
#X connect 56 0 55 0;
#X connect 57 0 60 0;
#X connect 58 0 59 0;
#X connect 59 0 232 0;
#X connect 60 0 82 0;
#X connect 61 0 62 0;
#X connect 62 0 234 0;
#X connect 63 0 64 0;
#X connect 64 0 83 0;
#X connect 65 0 66 0;
#X connect 66 0 236 0;
#X connect 67 0 68 0;
#X connect 68 0 84 0;
#X connect 69 0 70 0;
#X connect 70 0 238 0;
#X connect 71 0 72 0;
#X connect 72 0 85 0;
#X connect 73 0 74 0;
#X connect 74 0 240 0;
#X connect 75 0 76 0;
#X connect 76 0 86 0;
#X connect 77 0 78 0;
#X connect 78 0 242 0;
#X connect 79 0 80 0;
#X connect 80 0 130 0;
#X connect 81 0 153 0;
#X connect 81 1 53 0;
#X connect 82 0 155 0;
#X connect 82 1 61 0;
#X connect 83 0 156 0;
#X connect 83 1 65 0;
#X connect 84 0 157 0;
#X connect 84 1 69 0;
#X connect 85 0 158 0;
#X connect 85 1 73 0;
#X connect 86 0 138 0;
#X connect 86 1 77 0;
#X connect 87 0 154 0;
#X connect 87 1 58 0;
#X connect 88 0 89 0;
#X connect 89 0 81 0;
#X connect 97 0 98 0;
#X connect 98 0 244 0;
#X connect 99 0 129 0;
#X connect 100 0 99 0;
#X connect 101 0 104 0;
#X connect 102 0 103 0;
#X connect 103 0 246 0;
#X connect 104 0 124 0;
#X connect 105 0 106 0;
#X connect 106 0 248 0;
#X connect 107 0 108 0;
#X connect 108 0 125 0;
#X connect 109 0 110 0;
#X connect 110 0 250 0;
#X connect 111 0 112 0;
#X connect 112 0 126 0;
#X connect 113 0 114 0;
#X connect 114 0 252 0;
#X connect 115 0 116 0;
#X connect 116 0 127 0;
#X connect 117 0 118 0;
#X connect 118 0 254 0;
#X connect 119 0 120 0;
#X connect 120 0 128 0;
#X connect 122 0 123 0;
#X connect 123 0 256 0;
#X connect 124 0 141 0;
#X connect 124 1 105 0;
#X connect 125 0 142 0;
#X connect 125 1 109 0;
#X connect 126 0 143 0;
#X connect 126 1 113 0;
#X connect 127 0 144 0;
#X connect 127 1 117 0;
#X connect 128 0 121 0;
#X connect 128 1 122 0;
#X connect 129 0 140 0;
#X connect 129 1 102 0;
#X connect 130 0 139 0;
#X connect 130 1 97 0;
#X connect 138 0 79 0;
#X connect 139 0 100 0;
#X connect 140 0 101 0;
#X connect 141 0 107 0;
#X connect 142 0 111 0;
#X connect 143 0 115 0;
#X connect 144 0 119 0;
#X connect 145 0 9 0;
#X connect 146 0 10 0;
#X connect 147 0 16 0;
#X connect 148 0 20 0;
#X connect 149 0 24 0;
#X connect 150 0 28 0;
#X connect 151 0 32 0;
#X connect 152 0 88 0;
#X connect 153 0 56 0;
#X connect 154 0 57 0;
#X connect 155 0 63 0;
#X connect 156 0 67 0;
#X connect 157 0 71 0;
#X connect 158 0 75 0;
#X connect 159 0 160 0;
#X connect 160 0 185 0;
#X connect 162 0 5 0;
#X connect 185 0 159 1;
#X connect 185 0 1 0;
#X connect 185 0 186 0;
#X connect 187 0 159 0;
#X connect 188 0 189 0;
#X connect 189 0 190 0;
#X connect 190 0 201 0;
#X connect 191 0 194 0;
#X connect 192 0 193 0;
#X connect 193 0 203 0;
#X connect 194 0 197 0;
#X connect 195 0 196 0;
#X connect 196 0 204 0;
#X connect 197 0 192 0;
#X connect 197 1 195 0;
#X connect 197 2 198 0;
#X connect 198 0 199 0;
#X connect 199 0 205 0;
#X connect 201 0 202 0;
#X connect 202 0 200 0;
#X connect 203 0 192 1;
#X connect 203 0 188 0;
#X connect 204 0 195 1;
#X connect 204 0 189 1;
#X connect 205 0 198 1;
#X connect 205 0 189 2;
#X connect 206 0 203 1;
#X connect 206 0 204 1;
#X connect 206 0 205 1;
#X connect 207 0 203 1;
#X connect 207 0 204 1;
#X connect 207 0 205 1;
#X connect 208 0 207 0;
#X connect 209 0 206 0;
#X connect 210 0 211 0;
#X connect 211 0 185 1;
#X connect 212 0 185 1;
#X connect 213 0 212 0;
#X connect 214 0 163 0;
#X connect 215 0 214 1;
#X connect 216 0 164 0;
#X connect 217 0 216 1;
#X connect 218 0 165 0;
#X connect 219 0 218 1;
#X connect 220 0 166 0;
#X connect 221 0 220 1;
#X connect 222 0 167 0;
#X connect 223 0 222 1;
#X connect 224 0 168 0;
#X connect 225 0 224 1;
#X connect 226 0 169 0;
#X connect 227 0 226 1;
#X connect 228 0 170 0;
#X connect 229 0 228 1;
#X connect 230 0 171 0;
#X connect 231 0 230 1;
#X connect 232 0 172 0;
#X connect 233 0 232 1;
#X connect 234 0 173 0;
#X connect 235 0 234 1;
#X connect 236 0 174 0;
#X connect 237 0 236 1;
#X connect 238 0 175 0;
#X connect 239 0 238 1;
#X connect 240 0 176 0;
#X connect 241 0 240 1;
#X connect 242 0 177 0;
#X connect 243 0 242 1;
#X connect 244 0 178 0;
#X connect 245 0 244 1;
#X connect 246 0 179 0;
#X connect 247 0 246 1;
#X connect 248 0 180 0;
#X connect 249 0 248 1;
#X connect 250 0 181 0;
#X connect 251 0 250 1;
#X connect 252 0 182 0;
#X connect 253 0 252 1;
#X connect 254 0 183 0;
#X connect 255 0 254 1;
#X connect 256 0 184 0;
#X connect 257 0 256 1;
#X connect 260 0 264 0;
#X connect 261 0 262 0;
#X connect 262 0 259 0;
#X connect 262 1 263 0;
#X connect 264 0 258 0;
#X connect 264 1 265 0;
#X connect 266 0 267 0;
#X connect 267 0 268 0;
#X connect 268 0 271 0;
#X connect 268 1 274 0;
#X connect 269 0 261 0;
#X connect 270 0 260 0;
#X connect 271 0 269 0;
#X connect 271 1 270 0;
#X connect 272 0 260 0;
#X connect 273 0 261 0;
#X connect 274 0 272 0;
#X connect 274 1 273 0;
#X connect 275 0 278 0;
#X connect 277 0 276 0;
#X connect 278 0 277 0;
#X connect 278 1 279 0;
#X connect 279 0 280 0;
#X coords 0 -1 1 1 250 60 2 100 100;
